<svg width="176" height="21" viewBox="0 0 176 21" fill="none" xmlns="http://www.w3.org/2000/svg">
<path d="M0.699978 20.5801C0.494645 20.5801 0.326645 20.5147 0.195978 20.3841C0.0653114 20.2534 -2.19643e-05 20.0854 -2.19643e-05 19.8801V1.68008C-2.19643e-05 1.47474 0.0653114 1.30674 0.195978 1.17608C0.326645 1.04541 0.494645 0.980077 0.699978 0.980077H9.23998C10.8453 0.980077 12.1613 1.20408 13.188 1.65208C14.2146 2.10008 14.9706 2.74408 15.456 3.58408C15.96 4.40541 16.212 5.38541 16.212 6.52408C16.212 7.19608 16.0813 7.79341 15.82 8.31608C15.5773 8.82008 15.2693 9.24008 14.896 9.57608C14.5413 9.91208 14.2053 10.1547 13.888 10.3041C14.5973 10.6401 15.2226 11.1907 15.764 11.9561C16.324 12.7214 16.604 13.6174 16.604 14.6441C16.604 15.8761 16.324 16.9401 15.764 17.8361C15.2226 18.7134 14.42 19.3947 13.356 19.8801C12.3106 20.3467 11.0226 20.5801 9.49198 20.5801H0.699978ZM5.01198 16.9401H8.93198C9.73465 16.9401 10.3413 16.7067 10.752 16.2401C11.1626 15.7734 11.368 15.2414 11.368 14.6441C11.368 13.9907 11.1533 13.4401 10.724 12.9921C10.3133 12.5441 9.71598 12.3201 8.93198 12.3201H5.01198V16.9401ZM5.01198 8.76408H8.67998C9.44531 8.76408 10.0146 8.56808 10.388 8.17608C10.78 7.78408 10.976 7.28008 10.976 6.66408C10.976 6.06674 10.78 5.58141 10.388 5.20808C10.0146 4.81608 9.44531 4.62008 8.67998 4.62008H5.01198V8.76408ZM19.9513 20.5801C19.7459 20.5801 19.5779 20.5147 19.4473 20.3841C19.3166 20.2534 19.2513 20.0854 19.2513 19.8801V6.72008C19.2513 6.53341 19.3166 6.37474 19.4473 6.24408C19.5779 6.09474 19.7459 6.02008 19.9513 6.02008H23.1713C23.3766 6.02008 23.5446 6.09474 23.6753 6.24408C23.8059 6.37474 23.8713 6.53341 23.8713 6.72008V7.84008C24.3753 7.26141 24.9726 6.81341 25.6633 6.49608C26.3726 6.17874 27.1659 6.02008 28.0433 6.02008H29.2753C29.4619 6.02008 29.6206 6.08541 29.7513 6.21608C29.9006 6.34674 29.9753 6.51474 29.9753 6.72008V9.60408C29.9753 9.79074 29.9006 9.95874 29.7513 10.1081C29.6206 10.2387 29.4619 10.3041 29.2753 10.3041H26.5593C25.7939 10.3041 25.1966 10.5187 24.7673 10.9481C24.3566 11.3587 24.1513 11.9467 24.1513 12.7121V19.8801C24.1513 20.0854 24.0766 20.2534 23.9273 20.3841C23.7966 20.5147 23.6286 20.5801 23.4233 20.5801H19.9513ZM35.9325 20.8601C34.9245 20.8601 34.0191 20.6734 33.2165 20.3001C32.4325 19.9081 31.8071 19.3854 31.3405 18.7321C30.8738 18.0787 30.6405 17.3414 30.6405 16.5201C30.6405 15.1947 31.1818 14.1494 32.2645 13.3841C33.3471 12.6001 34.7845 12.0681 36.5765 11.7881L40.0765 11.2561V10.8641C40.0765 10.1921 39.9365 9.67874 39.6565 9.32408C39.3765 8.96941 38.8631 8.79208 38.1165 8.79208C37.5938 8.79208 37.1645 8.89474 36.8285 9.10008C36.5111 9.30541 36.2591 9.58541 36.0725 9.94008C35.9045 10.1827 35.6711 10.3041 35.3725 10.3041H32.2365C32.0311 10.3041 31.8725 10.2481 31.7605 10.1361C31.6485 10.0054 31.6018 9.85608 31.6205 9.68808C31.6205 9.35208 31.7418 8.96941 31.9845 8.54008C32.2458 8.09208 32.6378 7.65341 33.1605 7.22408C33.6831 6.79474 34.3551 6.44008 35.1765 6.16008C35.9978 5.88008 36.9871 5.74008 38.1445 5.74008C39.3578 5.74008 40.3938 5.88008 41.2525 6.16008C42.1111 6.44008 42.8018 6.83208 43.3245 7.33608C43.8658 7.84008 44.2671 8.43741 44.5285 9.12808C44.7898 9.80008 44.9205 10.5467 44.9205 11.3681V19.8801C44.9205 20.0854 44.8458 20.2534 44.6965 20.3841C44.5658 20.5147 44.4071 20.5801 44.2205 20.5801H40.9725C40.7671 20.5801 40.5991 20.5147 40.4685 20.3841C40.3378 20.2534 40.2725 20.0854 40.2725 19.8801V18.9001C40.0298 19.2547 39.7031 19.5814 39.2925 19.8801C38.8818 20.1787 38.3965 20.4121 37.8365 20.5801C37.2951 20.7667 36.6605 20.8601 35.9325 20.8601ZM37.2485 17.6681C37.7898 17.6681 38.2751 17.5561 38.7045 17.3321C39.1525 17.0894 39.4978 16.7254 39.7405 16.2401C40.0018 15.7361 40.1325 15.1107 40.1325 14.3641V13.9721L37.7525 14.3921C36.8751 14.5414 36.2311 14.7747 35.8205 15.0921C35.4285 15.3907 35.2325 15.7454 35.2325 16.1561C35.2325 16.4734 35.3258 16.7441 35.5125 16.9681C35.6991 17.1921 35.9418 17.3694 36.2405 17.5001C36.5391 17.6121 36.8751 17.6681 37.2485 17.6681ZM48.6245 20.5801C48.4192 20.5801 48.2512 20.5147 48.1205 20.3841C47.9899 20.2534 47.9245 20.0854 47.9245 19.8801V6.72008C47.9245 6.51474 47.9899 6.34674 48.1205 6.21608C48.2512 6.08541 48.4192 6.02008 48.6245 6.02008H51.9285C52.1152 6.02008 52.2739 6.08541 52.4045 6.21608C52.5539 6.34674 52.6285 6.51474 52.6285 6.72008V19.8801C52.6285 20.0854 52.5539 20.2534 52.4045 20.3841C52.2739 20.5147 52.1152 20.5801 51.9285 20.5801H48.6245ZM48.5965 3.92008C48.3912 3.92008 48.2232 3.85474 48.0925 3.72408C47.9619 3.59341 47.8965 3.42541 47.8965 3.22008V0.728077C47.8965 0.522744 47.9619 0.354744 48.0925 0.224077C48.2232 0.074744 48.3912 7.77245e-05 48.5965 7.77245e-05H51.9285C52.1339 7.77245e-05 52.3019 0.074744 52.4325 0.224077C52.5819 0.354744 52.6565 0.522744 52.6565 0.728077V3.22008C52.6565 3.42541 52.5819 3.59341 52.4325 3.72408C52.3019 3.85474 52.1339 3.92008 51.9285 3.92008H48.5965ZM57.3283 20.5801C57.123 20.5801 56.955 20.5147 56.8243 20.3841C56.6937 20.2534 56.6283 20.0854 56.6283 19.8801V6.72008C56.6283 6.51474 56.6937 6.34674 56.8243 6.21608C56.955 6.08541 57.123 6.02008 57.3283 6.02008H60.5483C60.7537 6.02008 60.9217 6.08541 61.0523 6.21608C61.183 6.34674 61.2483 6.51474 61.2483 6.72008V7.78408C61.7337 7.20541 62.3683 6.72008 63.1523 6.32808C63.9363 5.93608 64.8603 5.74008 65.9243 5.74008C67.007 5.74008 67.959 5.98274 68.7803 6.46808C69.6204 6.95341 70.2737 7.67208 70.7403 8.62408C71.2257 9.55741 71.4684 10.7054 71.4684 12.0681V19.8801C71.4684 20.0854 71.3937 20.2534 71.2443 20.3841C71.1137 20.5147 70.955 20.5801 70.7683 20.5801H67.2403C67.0537 20.5801 66.8857 20.5147 66.7363 20.3841C66.6057 20.2534 66.5403 20.0854 66.5403 19.8801V12.2361C66.5403 11.3587 66.3257 10.6867 65.8963 10.2201C65.4857 9.73474 64.8697 9.49208 64.0483 9.49208C63.283 9.49208 62.667 9.73474 62.2003 10.2201C61.7523 10.6867 61.5283 11.3587 61.5283 12.2361V19.8801C61.5283 20.0854 61.4537 20.2534 61.3043 20.3841C61.1737 20.5147 61.015 20.5801 60.8283 20.5801H57.3283ZM78.2515 20.5801C77.9715 20.5801 77.7662 20.5147 77.6355 20.3841C77.5049 20.2534 77.4022 20.0854 77.3275 19.8801L73.2955 6.91608C73.2582 6.82274 73.2395 6.72941 73.2395 6.63608C73.2395 6.46808 73.3049 6.32808 73.4355 6.21608C73.5662 6.08541 73.7155 6.02008 73.8835 6.02008H76.7675C77.0102 6.02008 77.1969 6.08541 77.3275 6.21608C77.4769 6.34674 77.5702 6.47741 77.6075 6.60808L79.9595 14.6161L82.4795 6.63608C82.5169 6.50541 82.6009 6.37474 82.7315 6.24408C82.8809 6.09474 83.0862 6.02008 83.3475 6.02008H85.1955C85.4569 6.02008 85.6529 6.09474 85.7835 6.24408C85.9329 6.37474 86.0262 6.50541 86.0635 6.63608L88.5835 14.6161L90.9355 6.60808C90.9729 6.47741 91.0569 6.34674 91.1875 6.21608C91.3369 6.08541 91.5329 6.02008 91.7755 6.02008H94.6595C94.8275 6.02008 94.9675 6.08541 95.0795 6.21608C95.2102 6.32808 95.2755 6.46808 95.2755 6.63608C95.2755 6.72941 95.2662 6.82274 95.2475 6.91608L91.2155 19.8801C91.1595 20.0854 91.0569 20.2534 90.9075 20.3841C90.7769 20.5147 90.5715 20.5801 90.2915 20.5801H87.7715C87.5102 20.5801 87.3049 20.5147 87.1555 20.3841C87.0062 20.2534 86.9035 20.0854 86.8475 19.8801L84.2715 12.2081L81.6955 19.8801C81.6395 20.0854 81.5369 20.2534 81.3875 20.3841C81.2382 20.5147 81.0329 20.5801 80.7715 20.5801H78.2515ZM101.373 20.8601C100.365 20.8601 99.4594 20.6734 98.6567 20.3001C97.8727 19.9081 97.2474 19.3854 96.7807 18.7321C96.3141 18.0787 96.0807 17.3414 96.0807 16.5201C96.0807 15.1947 96.6221 14.1494 97.7047 13.3841C98.7874 12.6001 100.225 12.0681 102.017 11.7881L105.517 11.2561V10.8641C105.517 10.1921 105.377 9.67874 105.097 9.32408C104.817 8.96941 104.303 8.79208 103.557 8.79208C103.034 8.79208 102.605 8.89474 102.269 9.10008C101.951 9.30541 101.699 9.58541 101.513 9.94008C101.345 10.1827 101.111 10.3041 100.813 10.3041H97.6767C97.4714 10.3041 97.3127 10.2481 97.2007 10.1361C97.0887 10.0054 97.0421 9.85608 97.0607 9.68808C97.0607 9.35208 97.1821 8.96941 97.4247 8.54008C97.6861 8.09208 98.0781 7.65341 98.6007 7.22408C99.1234 6.79474 99.7954 6.44008 100.617 6.16008C101.438 5.88008 102.427 5.74008 103.585 5.74008C104.798 5.74008 105.834 5.88008 106.693 6.16008C107.551 6.44008 108.242 6.83208 108.765 7.33608C109.306 7.84008 109.707 8.43741 109.969 9.12808C110.23 9.80008 110.361 10.5467 110.361 11.3681V19.8801C110.361 20.0854 110.286 20.2534 110.137 20.3841C110.006 20.5147 109.847 20.5801 109.661 20.5801H106.413C106.207 20.5801 106.039 20.5147 105.909 20.3841C105.778 20.2534 105.713 20.0854 105.713 19.8801V18.9001C105.47 19.2547 105.143 19.5814 104.733 19.8801C104.322 20.1787 103.837 20.4121 103.277 20.5801C102.735 20.7667 102.101 20.8601 101.373 20.8601ZM102.689 17.6681C103.23 17.6681 103.715 17.5561 104.145 17.3321C104.593 17.0894 104.938 16.7254 105.181 16.2401C105.442 15.7361 105.573 15.1107 105.573 14.3641V13.9721L103.193 14.3921C102.315 14.5414 101.671 14.7747 101.261 15.0921C100.869 15.3907 100.673 15.7454 100.673 16.1561C100.673 16.4734 100.766 16.7441 100.953 16.9681C101.139 17.1921 101.382 17.3694 101.681 17.5001C101.979 17.6121 102.315 17.6681 102.689 17.6681ZM118.135 20.5801C117.855 20.5801 117.649 20.5147 117.519 20.3841C117.388 20.2347 117.276 20.0667 117.183 19.8801L111.891 6.88808C111.853 6.81341 111.835 6.72941 111.835 6.63608C111.835 6.46808 111.891 6.32808 112.003 6.21608C112.133 6.08541 112.292 6.02008 112.479 6.02008H115.643C115.885 6.02008 116.072 6.08541 116.203 6.21608C116.333 6.34674 116.417 6.47741 116.455 6.60808L119.619 15.2041L122.811 6.60808C122.848 6.47741 122.932 6.34674 123.063 6.21608C123.193 6.08541 123.38 6.02008 123.623 6.02008H126.787C126.955 6.02008 127.104 6.08541 127.235 6.21608C127.365 6.32808 127.431 6.46808 127.431 6.63608C127.431 6.72941 127.412 6.81341 127.375 6.88808L122.083 19.8801C122.008 20.0667 121.896 20.2347 121.747 20.3841C121.616 20.5147 121.401 20.5801 121.103 20.5801H118.135ZM135.625 20.8601C133.422 20.8601 131.667 20.2627 130.361 19.0681C129.054 17.8734 128.373 16.1001 128.317 13.7481C128.317 13.6174 128.317 13.4494 128.317 13.2441C128.317 13.0387 128.317 12.8801 128.317 12.7681C128.373 11.2934 128.699 10.0334 129.297 8.98808C129.913 7.92408 130.753 7.12141 131.817 6.58008C132.899 6.02008 134.159 5.74008 135.597 5.74008C137.239 5.74008 138.593 6.06674 139.657 6.72008C140.739 7.37341 141.551 8.26008 142.093 9.38008C142.634 10.5001 142.905 11.7787 142.905 13.2161V13.8881C142.905 14.0934 142.83 14.2614 142.681 14.3921C142.55 14.5227 142.391 14.5881 142.205 14.5881H133.245C133.245 14.6067 133.245 14.6347 133.245 14.6721C133.245 14.7094 133.245 14.7467 133.245 14.7841C133.263 15.3254 133.357 15.8201 133.525 16.2681C133.693 16.7161 133.954 17.0707 134.309 17.3321C134.663 17.5934 135.093 17.7241 135.597 17.7241C135.97 17.7241 136.278 17.6681 136.521 17.5561C136.782 17.4254 136.997 17.2854 137.165 17.1361C137.333 16.9681 137.463 16.8281 137.557 16.7161C137.725 16.5294 137.855 16.4174 137.949 16.3801C138.061 16.3241 138.229 16.2961 138.453 16.2961H141.925C142.111 16.2961 142.261 16.3521 142.373 16.4641C142.503 16.5574 142.559 16.6974 142.541 16.8841C142.522 17.2014 142.363 17.5841 142.065 18.0321C141.766 18.4801 141.327 18.9281 140.749 19.3761C140.189 19.8054 139.479 20.1601 138.621 20.4401C137.762 20.7201 136.763 20.8601 135.625 20.8601ZM133.245 11.8161H137.977V11.7601C137.977 11.1627 137.883 10.6401 137.697 10.1921C137.529 9.74408 137.258 9.39874 136.885 9.15608C136.53 8.91341 136.101 8.79208 135.597 8.79208C135.093 8.79208 134.663 8.91341 134.309 9.15608C133.973 9.39874 133.711 9.74408 133.525 10.1921C133.338 10.6401 133.245 11.1627 133.245 11.7601V11.8161ZM145.934 20.5801C145.729 20.5801 145.561 20.5147 145.43 20.3841C145.299 20.2534 145.234 20.0854 145.234 19.8801V16.3241C145.234 16.1374 145.299 15.9787 145.43 15.8481C145.561 15.6987 145.729 15.6241 145.934 15.6241H149.462C149.667 15.6241 149.835 15.6987 149.966 15.8481C150.115 15.9787 150.19 16.1374 150.19 16.3241V19.8801C150.19 20.0854 150.115 20.2534 149.966 20.3841C149.835 20.5147 149.667 20.5801 149.462 20.5801H145.934ZM153.875 20.5801C153.67 20.5801 153.502 20.5147 153.371 20.3841C153.241 20.2534 153.175 20.0854 153.175 19.8801V6.72008C153.175 6.51474 153.241 6.34674 153.371 6.21608C153.502 6.08541 153.67 6.02008 153.875 6.02008H157.179C157.366 6.02008 157.525 6.08541 157.655 6.21608C157.805 6.34674 157.879 6.51474 157.879 6.72008V19.8801C157.879 20.0854 157.805 20.2534 157.655 20.3841C157.525 20.5147 157.366 20.5801 157.179 20.5801H153.875ZM153.847 3.92008C153.642 3.92008 153.474 3.85474 153.343 3.72408C153.213 3.59341 153.147 3.42541 153.147 3.22008V0.728077C153.147 0.522744 153.213 0.354744 153.343 0.224077C153.474 0.074744 153.642 7.77245e-05 153.847 7.77245e-05H157.179C157.385 7.77245e-05 157.553 0.074744 157.683 0.224077C157.833 0.354744 157.907 0.522744 157.907 0.728077V3.22008C157.907 3.42541 157.833 3.59341 157.683 3.72408C157.553 3.85474 157.385 3.92008 157.179 3.92008H153.847ZM168.029 20.8601C166.461 20.8601 165.136 20.6081 164.053 20.1041C162.989 19.6001 162.168 18.8814 161.589 17.9481C161.029 16.9961 160.712 15.8667 160.637 14.5601C160.618 14.1867 160.609 13.7667 160.609 13.3001C160.609 12.8147 160.618 12.3947 160.637 12.0401C160.712 10.7147 161.048 9.58541 161.645 8.65208C162.242 7.71874 163.073 7.00008 164.137 6.49608C165.22 5.99208 166.517 5.74008 168.029 5.74008C169.56 5.74008 170.857 5.99208 171.921 6.49608C173.004 7.00008 173.844 7.71874 174.441 8.65208C175.038 9.58541 175.374 10.7147 175.449 12.0401C175.468 12.3947 175.477 12.8147 175.477 13.3001C175.477 13.7667 175.468 14.1867 175.449 14.5601C175.374 15.8667 175.048 16.9961 174.469 17.9481C173.909 18.8814 173.088 19.6001 172.005 20.1041C170.941 20.6081 169.616 20.8601 168.029 20.8601ZM168.029 17.4441C168.869 17.4441 169.476 17.1921 169.849 16.6881C170.241 16.1841 170.465 15.4281 170.521 14.4201C170.54 14.1401 170.549 13.7667 170.549 13.3001C170.549 12.8334 170.54 12.4601 170.521 12.1801C170.465 11.1907 170.241 10.4441 169.849 9.94008C169.476 9.41741 168.869 9.15608 168.029 9.15608C167.208 9.15608 166.601 9.41741 166.209 9.94008C165.817 10.4441 165.602 11.1907 165.565 12.1801C165.546 12.4601 165.537 12.8334 165.537 13.3001C165.537 13.7667 165.546 14.1401 165.565 14.4201C165.602 15.4281 165.817 16.1841 166.209 16.6881C166.601 17.1921 167.208 17.4441 168.029 17.4441Z" fill="#161C2D"/>
</svg>
